<?xml version="1.0" standalone="no"?>
<!DOCTYPE svg PUBLIC "-//W3C//DTD SVG 20010904//EN"
 "http://www.w3.org/TR/2001/REC-SVG-20010904/DTD/svg10.dtd">
<svg version="1.0" xmlns="http://www.w3.org/2000/svg"
 width="700.000000pt" height="700.000000pt" viewBox="0 0 700.000000 700.000000"
 preserveAspectRatio="xMidYMid meet">
<metadata>
Created by potrace 1.11, written by Peter Selinger 2001-2013
</metadata>
<g transform="translate(0.000000,700.000000) scale(0.100000,-0.100000)"
fill="#000000" stroke="none">
<path d="M3467 6887 c-16 -56 -33 -113 -37 -127 -5 -14 -93 -311 -195 -660
-187 -636 -226 -768 -251 -848 -8 -23 -14 -49 -14 -57 0 -22 -17 -27 -37 -10
-10 8 -207 160 -438 338 -231 177 -458 352 -505 388 -95 73 -421 324 -489 376
-24 19 -45 32 -48 30 -2 -2 19 -67 46 -143 27 -76 122 -344 211 -594 88 -250
170 -477 180 -505 11 -27 35 -95 54 -150 19 -55 57 -165 85 -244 28 -79 51
-145 51 -148 0 -4 -97 -2 -565 12 -171 5 -504 14 -725 20 -74 2 -243 6 -375
10 l-240 7 112 -79 c62 -43 201 -139 310 -213 108 -74 253 -173 321 -220 68
-47 132 -89 141 -95 9 -5 18 -12 21 -15 3 -3 55 -39 115 -80 61 -40 130 -88
155 -105 76 -53 231 -159 317 -218 l83 -56 -93 -64 c-50 -35 -154 -106 -230
-158 -76 -52 -224 -153 -330 -226 -106 -72 -244 -167 -307 -210 -63 -43 -189
-129 -280 -192 -91 -63 -201 -139 -244 -168 -44 -29 -82 -56 -85 -59 -5 -4
177 -1 579 11 74 2 229 6 345 10 116 3 275 8 355 10 390 12 620 16 620 11 0
-3 -22 -68 -49 -143 -27 -76 -86 -241 -131 -368 -45 -126 -106 -300 -137 -385
-30 -85 -71 -200 -90 -255 -19 -55 -42 -118 -50 -140 -9 -22 -28 -76 -43 -120
-16 -44 -51 -145 -79 -224 -28 -79 -49 -146 -47 -148 3 -3 158 113 221 164 6
5 60 47 120 93 61 46 268 206 461 355 193 148 366 281 384 295 18 14 52 40 74
58 52 41 46 36 142 109 45 34 87 64 94 65 11 3 30 -47 60 -157 7 -28 30 -105
162 -550 28 -93 54 -183 58 -200 5 -16 63 -214 130 -440 67 -226 125 -423 129
-440 4 -16 9 -25 12 -20 6 10 52 162 164 545 36 124 76 261 90 305 13 44 58
197 100 340 147 502 184 625 190 625 4 0 395 -299 405 -310 3 -3 50 -39 105
-80 55 -41 102 -77 105 -80 3 -3 23 -19 45 -36 22 -16 45 -33 51 -39 7 -5 22
-18 35 -27 13 -10 188 -144 388 -298 200 -154 366 -279 368 -277 3 4 -26 88
-127 372 -209 585 -291 817 -340 955 -32 91 -81 230 -109 309 -28 79 -51 146
-51 148 0 4 202 0 620 -12 137 -4 397 -12 715 -20 77 -2 236 -7 353 -10 116
-3 212 -4 212 -1 0 2 -23 19 -52 38 -73 47 -42 26 -645 439 -301 207 -586 402
-633 434 -140 96 -214 147 -227 157 -9 7 18 30 95 82 59 40 157 107 217 149
148 102 288 198 485 332 229 156 573 393 585 402 6 5 33 23 60 40 28 18 66 44
85 58 l35 26 -255 -6 c-140 -4 -309 -8 -375 -10 -66 -2 -226 -6 -355 -10 -129
-3 -298 -8 -375 -10 -426 -13 -545 -15 -545 -10 0 3 36 105 79 228 44 122 104
292 134 377 31 85 114 322 187 525 72 204 149 422 171 485 22 63 47 130 55
148 9 21 10 31 3 26 -11 -6 -1074 -823 -1148 -882 -181 -143 -356 -271 -361
-265 -4 5 -62 197 -130 428 -67 231 -136 465 -152 520 -17 55 -31 107 -33 115
-2 8 -17 60 -34 115 -67 224 -115 385 -143 480 -16 55 -32 110 -35 123 -10 43
-18 30 -46 -71z"/>
</g>
</svg>
